<?xml version="1.0" encoding="iso-8859-1"?>
<!-- Generator: Adobe Illustrator 19.0.0, SVG Export Plug-In . SVG Version: 6.00 Build 0)  -->
<svg version="1.1" id="Capa_1" xmlns="http://www.w3.org/2000/svg" xmlns:xlink="http://www.w3.org/1999/xlink" x="0px" y="0px"
	 viewBox="0 0 512 512" style="enable-background:new 0 0 512 512;" xml:space="preserve">
<circle style="fill:#FFAF10;" cx="256" cy="256" r="245"/>
<rect x="202" y="388.65" style="fill:#445EA0;" width="108" height="41.44"/>
<g>
	<rect x="202" y="388.65" style="fill:#293D7C;" width="19.843" height="41.44"/>
	<path style="fill:#293D7C;" d="M360.502,454.083c0,2.75-2.25,5-5,5H156.498c-2.75,0-5-2.25-5-5v-20c0-2.75,2.25-5,5-5h199.004
		c2.75,0,5,2.25,5,5V454.083z"/>
</g>
<path style="fill:#1A2B63;" d="M191.184,454.083v-20c0-2.75,2.25-5,5-5h-39.686c-2.75,0-5,2.25-5,5v20c0,2.75,2.25,5,5,5h39.686
	C193.434,459.083,191.184,456.833,191.184,454.083z"/>
<path style="fill:#293D7C;" d="M0,379.647c0,5.5,4.5,10,10,10h492c5.5,0,10-4.5,10-10v-43.269H0V379.647z"/>
<path style="fill:#1A2B63;" d="M19.843,379.647v-43.269H0v43.269c0,5.5,4.5,10,10,10h19.843
	C24.343,389.647,19.843,385.147,19.843,379.647z"/>
<path style="fill:#445EA0;" d="M499.691,46.917H12.309C5.54,46.917,0,52.455,0,59.224v278.154h512V59.224
	C512,52.455,506.46,46.917,499.691,46.917z"/>
<path style="fill:#5DC1D8;" d="M26.68,314.325c-2.785,0-5.065-2.278-5.065-5.064V75.033c0-2.785,2.279-5.064,5.065-5.064h458.64
	c2.785,0,5.064,2.279,5.064,5.064v234.228c0,2.786-2.279,5.064-5.064,5.064L26.68,314.325L26.68,314.325z"/>
<path style="fill:#28A5A5;" d="M43.23,309.261V75.033c0-2.785,2.279-5.064,5.064-5.064H26.68c-2.785,0-5.065,2.279-5.065,5.064
	v234.228c0,2.786,2.279,5.064,5.065,5.064h21.615C45.51,314.325,43.23,312.047,43.23,309.261z"/>
<g>
	<path style="fill:#FFFFFF;" d="M262.831,178.957c0,1.65-1.35,3-3,3h-16.499c-1.65,0-3-1.35-3-3v-74.741c0-1.65,1.35-3,3-3h16.499
		c1.65,0,3,1.35,3,3V178.957z"/>
	<path style="fill:#FFFFFF;" d="M292.829,178.957c0,1.65-1.35,3-3,3h-16.498c-1.65,0-3-1.35-3-3v-47.395c0-1.65,1.35-3,3-3h16.498
		c1.65,0,3,1.35,3,3V178.957z"/>
	<path style="fill:#FFFFFF;" d="M322.828,178.957c0,1.65-1.35,3-3,3h-16.499c-1.65,0-3-1.35-3-3v-33.068c0-1.65,1.35-3,3-3h16.499
		c1.65,0,3,1.35,3,3V178.957z"/>
	<path style="fill:#FFFFFF;" d="M352.827,178.957c0,1.65-1.35,3-3,3h-16.5c-1.65,0-3-1.35-3-3v-60.416c0-1.65,1.35-3,3-3h16.5
		c1.65,0,3,1.35,3,3V178.957z"/>
	<path style="fill:#FFFFFF;" d="M382.825,178.957c0,1.65-1.35,3-3,3h-16.499c-1.65,0-3-1.35-3-3v-40.883c0-1.65,1.35-3,3-3h16.499
		c1.65,0,3,1.35,3,3V178.957z"/>
</g>
<g>
	<path style="fill:#FFAF10;" d="M360.325,275.208c0,1.65,1.35,3,3,3h16.499c1.65,0,3-1.35,3-3v-74.741c0-1.65-1.35-3-3-3h-16.499
		c-1.65,0-3,1.35-3,3V275.208z"/>
	<path style="fill:#FFAF10;" d="M330.327,275.208c0,1.65,1.35,3,3,3h16.498c1.65,0,3-1.35,3-3v-47.394c0-1.65-1.35-3-3-3h-16.498
		c-1.65,0-3,1.35-3,3V275.208z"/>
	<path style="fill:#FFAF10;" d="M300.328,275.208c0,1.65,1.35,3,3,3h16.499c1.65,0,3-1.35,3-3V242.14c0-1.65-1.35-3-3-3h-16.499
		c-1.65,0-3,1.35-3,3V275.208z"/>
	<path style="fill:#FFAF10;" d="M270.329,275.208c0,1.65,1.35,3,3,3h16.5c1.65,0,3-1.35,3-3v-60.416c0-1.65-1.35-3-3-3h-16.5
		c-1.65,0-3,1.35-3,3V275.208z"/>
	<path style="fill:#FFAF10;" d="M240.331,275.208c0,1.65,1.35,3,3,3h16.499c1.65,0,3-1.35,3-3v-40.882c0-1.65-1.35-3-3-3h-16.499
		c-1.65,0-3,1.35-3,3V275.208z"/>
</g>
<g>
	<path style="fill:#91E0E8;" d="M456.563,132.119h-50.625c-4.143,0-7.5-3.357-7.5-7.5c0-4.143,3.357-7.5,7.5-7.5h50.625
		c4.143,0,7.5,3.357,7.5,7.5C464.063,128.762,460.705,132.119,456.563,132.119z"/>
	<path style="fill:#91E0E8;" d="M456.563,153.43h-50.625c-4.143,0-7.5-3.357-7.5-7.5s3.357-7.5,7.5-7.5h50.625
		c4.143,0,7.5,3.357,7.5,7.5C464.063,150.072,460.705,153.43,456.563,153.43z"/>
	<path style="fill:#91E0E8;" d="M456.563,174.739h-50.625c-4.143,0-7.5-3.357-7.5-7.5s3.357-7.5,7.5-7.5h50.625
		c4.143,0,7.5,3.357,7.5,7.5S460.705,174.739,456.563,174.739z"/>
	<path style="fill:#91E0E8;" d="M437.438,196.049h-31.5c-4.143,0-7.5-3.357-7.5-7.5s3.357-7.5,7.5-7.5h31.5
		c4.143,0,7.5,3.357,7.5,7.5C444.938,192.691,441.58,196.049,437.438,196.049z"/>
	<path style="fill:#91E0E8;" d="M456.563,235.43h-50.625c-4.143,0-7.5-3.357-7.5-7.5s3.357-7.5,7.5-7.5h50.625
		c4.143,0,7.5,3.357,7.5,7.5C464.063,232.072,460.705,235.43,456.563,235.43z"/>
	<path style="fill:#91E0E8;" d="M456.563,256.739h-50.625c-4.143,0-7.5-3.357-7.5-7.5s3.357-7.5,7.5-7.5h50.625
		c4.143,0,7.5,3.357,7.5,7.5C464.063,253.382,460.705,256.739,456.563,256.739z"/>
	<path style="fill:#91E0E8;" d="M437.438,278.049h-31.5c-4.143,0-7.5-3.357-7.5-7.5c0-4.142,3.357-7.5,7.5-7.5h31.5
		c4.143,0,7.5,3.358,7.5,7.5S441.58,278.049,437.438,278.049z"/>
	<path style="fill:#91E0E8;" d="M486.833,368.833c0,1.65-1.35,3-3,3h-17.666c-1.65,0-3-1.35-3-3v-17.666c0-1.65,1.35-3,3-3h17.666
		c1.65,0,3,1.35,3,3V368.833z"/>
</g>
<path style="fill:#FFAF10;" d="M144.959,186.803c-1.657,0-3-1.343-3-3v-77.749c0-0.814,0.331-1.595,0.918-2.16
	c0.559-0.54,1.307-0.84,2.082-0.84c0.036,0,0.073,0.001,0.11,0.002c43.617,1.599,79.037,37.019,80.636,80.637
	c0.029,0.814-0.272,1.605-0.838,2.192s-1.346,0.918-2.16,0.918H144.959z"/>
<g>
	<path style="fill:#91E0E8;" d="M135.059,277.508c-46.211,0-83.806-37.595-83.806-83.805c0-21.809,8.365-42.477,23.556-58.198
		c15.151-15.681,35.444-24.754,57.14-25.549c0.037-0.001,0.074-0.002,0.11-0.002c0.775,0,1.523,0.3,2.082,0.84
		c0.587,0.565,0.918,1.346,0.918,2.16v80.749h80.748c0.814,0,1.595,0.331,2.16,0.918s0.867,1.378,0.838,2.192
		c-0.795,21.695-9.868,41.988-25.549,57.14C177.536,269.143,156.867,277.508,135.059,277.508z"/>
	<path style="fill:#91E0E8;" d="M149.401,263.165c-46.211,0-83.806-37.595-83.806-83.805c0-18.896,6.29-36.931,17.849-51.639
		c-3.028,2.379-5.917,4.97-8.636,7.783c-15.19,15.721-23.556,36.39-23.556,58.198c0,46.21,37.595,83.805,83.806,83.805
		c21.809,0,42.478-8.365,58.197-23.555c2.813-2.719,5.404-5.608,7.783-8.636C186.332,256.875,168.298,263.165,149.401,263.165z"/>
</g>
<g>
</g>
<g>
</g>
<g>
</g>
<g>
</g>
<g>
</g>
<g>
</g>
<g>
</g>
<g>
</g>
<g>
</g>
<g>
</g>
<g>
</g>
<g>
</g>
<g>
</g>
<g>
</g>
<g>
</g>
</svg>
